<?xml version="1.0" encoding="utf-8"?>
<!-- Generator: Adobe Illustrator 25.2.0, SVG Export Plug-In . SVG Version: 6.00 Build 0)  -->
<svg version="1.1" id="Layer_1" xmlns="http://www.w3.org/2000/svg" xmlns:xlink="http://www.w3.org/1999/xlink" x="0px" y="0px"
	 viewBox="0 0 100 100" style="enable-background:new 0 0 100 100;" xml:space="preserve">
<style type="text/css">
	.st0{fill:#EFEFEF;}
	.st1{fill:#1B88E2;}
	.st2{fill:#FFFFFF;}
	.st3{fill:#ED2F2F;}
</style>
<g>
	<circle class="st0" cx="50" cy="50" r="50"/>
	<circle class="st3" cx="50" cy="50" r="38.8"/>
	<g>
		<path class="st2" d="M50.4,55.8c-0.2,0.2-0.4,0.3-0.5,0.4c-2.8,2.9-5.7,5.7-8.5,8.6c-1.1,1.1-2.1,2.1-3.2,3.2
			c-0.3,0.3-0.5,0.3-0.8,0c-1.8-1.8-3.6-3.6-5.4-5.4c-0.3-0.3-0.2-0.5,0.1-0.8c2.2-2.2,4.5-4.5,6.7-6.7c1.7-1.7,3.3-3.3,5-5
			c0.4-0.4,0.4-0.6,0-1c-2.3-2.3-4.5-4.6-6.8-6.8c-1.6-1.6-3.2-3.2-4.8-4.8c-0.3-0.3-0.3-0.5,0-0.8c1.7-1.7,3.5-3.5,5.2-5.2
			c0.4-0.4,0.6-0.4,1,0c3.7,3.8,7.5,7.5,11.2,11.2c0.9,0.9,0.9,0.9,1.8,0c3.7-3.7,7.4-7.4,11.1-11.1c0.6-0.6,0.6-0.6,1.2,0
			c1.7,1.7,3.4,3.4,5.1,5.1c0.4,0.4,0.3,0.6,0,1c-3.8,3.8-7.6,7.6-11.5,11.5c-0.6,0.6-0.6,0.6,0,1.3c3.7,3.7,7.4,7.4,11.1,11.1
			c1,1,0.9,0.7,0,1.6c-1.6,1.6-3.2,3.2-4.7,4.8c-0.6,0.6-0.6,0.6-1.2,0c-3.7-3.8-7.5-7.5-11.2-11.3C50.9,56.2,50.7,56,50.4,55.8z"/>
	</g>
</g>
</svg>
